<?xml version="1.0" encoding="utf-8"?>
<!-- Generator: Adobe Illustrator 18.1.1, SVG Export Plug-In . SVG Version: 6.00 Build 0)  -->
<svg version="1.1" id="Layer_1" xmlns="http://www.w3.org/2000/svg" xmlns:xlink="http://www.w3.org/1999/xlink" x="0px" y="0px"
	 viewBox="318 -19.5 686.8 89.5" enable-background="new 318 -19.5 686.8 89.5" xml:space="preserve">
<g>
	<path fill="#FF552E" d="M377.6,14c0,9.8-2.3,17.1-6.9,21.9c-4.6,4.8-12.1,7.1-22.5,7.1h-13.5v25.2H318v-81.5h30.6
		c9.2,0,16.4,2.2,21.4,6.4C375-2.6,377.6,4.4,377.6,14z M360.4,14.1c0-4.6-1.3-7.9-3.8-10c-2.5-2-7.1-3.1-13.7-3.1h-8.3v27.4h6.8
		c6.1,0,10.3-0.4,12.6-1.3c2.3-0.8,4-2.3,4.9-4.3S360.4,18,360.4,14.1z"/>
	<path fill="#FF552E" d="M424.6,21.2c-1.6-0.8-3.7-1.2-6.2-1.2c-2.8,0-5.5,0.7-8,2c-2.5,1.4-5.1,3.3-7.8,5.9v40.2h-15.2V6.4h15.2
		v8.8c2.6-2.8,5.4-5.2,8.4-7c3-1.8,6.3-2.8,10-2.8c3.1,0,5.4,0.4,6.7,1.2L424.6,21.2z"/>
	<path fill="#FF552E" d="M489.1,37.4c0,10.3-2.4,18.3-7.1,24c-4.8,5.7-12.2,8.6-22.4,8.6c-19.8,0-29.7-10.9-29.7-32.6
		c0-10.4,2.4-18.5,7.1-24.2c4.8-5.7,12.3-8.6,22.6-8.6c10.2,0,17.7,2.9,22.4,8.6C486.7,18.9,489.1,27,489.1,37.4z M473.3,37.4
		c0-6.8-1.1-11.8-3.2-14.9c-2.1-3.1-5.7-4.7-10.7-4.7c-4.9,0-8.5,1.6-10.7,4.8c-2.2,3.2-3.3,8.1-3.3,14.8c0,6.6,1.1,11.5,3.3,14.6
		c2.2,3.1,5.8,4.7,10.8,4.7c4.9,0,8.4-1.5,10.6-4.6C472.3,49,473.3,44.1,473.3,37.4z"/>
	<path fill="#FF552E" d="M539.8,68.2v-6c-2.8,2.4-5.8,4.3-9,5.7s-6.7,2.1-10.7,2.1c-7.8,0-13.7-2.8-17.8-8.4
		c-4.1-5.6-6.2-13.5-6.2-23.8c0-10.5,2.3-18.6,6.8-24.4c4.5-5.8,10.9-8.7,19.1-8.7c2.9,0,5.9,0.6,9,1.8c3.1,1.2,5.6,2.7,7.6,4.6
		v-30.5h15.2v87.7H539.8z M538.5,23.5c-1.6-1.5-3.6-2.7-6-3.9c-2.4-1.1-4.8-1.7-7.3-1.7c-4.1,0-7.4,1.8-9.8,5.3
		c-2.5,3.5-3.7,8.3-3.7,14.3c0,5.9,1,10.6,3,14c2,3.4,5.2,5.1,9.4,5.1c2.5,0,5.1-0.6,7.7-1.7c2.6-1.2,4.8-2.6,6.7-4.3V23.5z"/>
	<path fill="#FF552E" d="M603,68.2v-8c-2.7,2.9-5.9,5.2-9.8,7c-3.9,1.8-7.6,2.7-11.2,2.7c-7,0-11.9-1.9-14.7-5.8
		c-2.8-3.9-4.2-9.4-4.2-16.5V6.4h15.2v34c0,4.4,0.3,7.7,0.8,10c0.5,2.3,1.3,3.9,2.5,4.8c1.2,0.9,2.9,1.3,5.1,1.3
		c4.5,0,9.9-3,16.3-8.9V6.4h15.2v61.8L603,68.2L603,68.2z"/>
	<path fill="#FF552E" d="M680.6,59.3c-2.4,3.5-5.5,6.1-9.3,8s-8.7,2.7-14.6,2.7c-10,0-17.5-2.7-22.6-8.2c-5.1-5.4-7.7-13.5-7.7-24.2
		c0-10.4,2.5-18.5,7.4-24.3c4.9-5.8,12.4-8.7,22.3-8.7c5.3,0,10,0.9,14.2,2.6c4.1,1.7,7.3,4.4,9.5,8l-11.3,8.1
		c-1.4-1.8-3-3.2-4.8-4.1c-1.8-0.9-4.2-1.3-7.1-1.3c-5.2,0-8.9,1.6-11.1,4.8s-3.3,8.1-3.3,14.8c0,6.7,1.1,11.6,3.4,14.6
		c2.3,3.1,6.1,4.6,11.6,4.6c2.4,0,4.5-0.3,6.5-1c2-0.7,3.8-2.1,5.6-4.4L680.6,59.3z"/>
	<path fill="#FF552E" d="M725.6,68.2c-4.1,1.2-8.4,1.8-12.9,1.8c-7.1,0-12.3-1.6-15.4-4.8c-3.1-3.2-4.7-8.4-4.7-15.7v-31h-7.8V6.4
		h7.8v-17.2h15.2V6.4h14.4v12.1h-14.4v29.1c0,3.8,0.6,6.5,1.8,7.8c1.2,1.4,2.9,2.1,5.1,2.1c2.8,0,5.6-0.6,8.3-1.7L725.6,68.2z"/>
	<path fill="#FF552E" d="M793.4,14c0,9.8-2.3,17.1-6.9,21.9c-4.6,4.8-12.1,7.1-22.5,7.1h-13.5v25.2h-16.6v-81.5h30.6
		c9.2,0,16.4,2.2,21.4,6.4C790.9-2.6,793.4,4.4,793.4,14z M776.3,14.1c0-4.6-1.3-7.9-3.8-10c-2.5-2-7.1-3.1-13.7-3.1h-8.3v27.4h6.8
		c6.1,0,10.3-0.4,12.6-1.3c2.3-0.8,4-2.3,4.9-4.3C775.8,20.9,776.3,18,776.3,14.1z"/>
	<path fill="#FF552E" d="M839.4,68.2v-6.4c-6,5.5-12.4,8.2-19.3,8.2c-6.8,0-12-1.8-15.5-5.4c-3.5-3.6-5.2-8.2-5.2-13.8
		c0-4.4,0.9-8,2.7-10.9c1.8-2.9,4.4-5.1,8-6.7c3.5-1.6,8.6-2.8,15.2-3.4l13-1.2v-2.8c0-3.5-1-5.8-3.1-7.1c-2.1-1.3-5.1-1.9-9.1-1.9
		c-3.3,0-6.1,0.6-8.5,1.6c-2.4,1.1-4.1,2.7-5.3,4.7l-11.8-7.6c2.1-3.5,5.3-6.2,9.8-8c4.4-1.9,9.8-2.8,16.1-2.8
		c9.6,0,16.6,1.7,20.8,5c4.3,3.4,6.4,8.9,6.4,16.5v42L839.4,68.2L839.4,68.2z M838.2,39.5l-7.7,0.7c-5.5,0.5-9.4,1.5-11.8,3.1
		c-2.4,1.6-3.6,4-3.6,7.2c0,2.8,0.8,4.8,2.4,5.8c1.6,1,3.7,1.6,6.2,1.6c1.8,0,4.1-0.6,6.7-1.7c2.6-1.2,5.3-2.8,7.8-4.9L838.2,39.5
		L838.2,39.5z"/>
	<path fill="#FF552E" d="M880.3-10.5c0,2.9-0.7,4.9-2.1,6c-1.4,1.1-3.6,1.7-6.5,1.7c-3.2,0-5.4-0.7-6.6-2c-1.2-1.3-1.7-3.2-1.7-5.7
		c0-2.7,0.6-4.7,1.9-5.9c1.3-1.2,3.4-1.8,6.4-1.8c3.1,0,5.3,0.6,6.6,1.7C879.7-15.3,880.3-13.3,880.3-10.5z M864.2,68.2V6.4h15.2
		v61.8L864.2,68.2L864.2,68.2z"/>
	<path fill="#FF552E" d="M930.6,68.2v-34c0-6.4-0.6-10.7-1.7-12.9c-1.2-2.2-3.3-3.2-6.6-3.2c-4.5,0-10,3-16.3,9v41.2h-15.2V6.4H906
		v8c3.2-3.2,6.7-5.7,10.3-7.3s7.2-2.5,10.7-2.5c6.3,0,11,1.7,14.1,5.2c3.1,3.5,4.7,9.2,4.7,17.1v41.2L930.6,68.2L930.6,68.2z"/>
	<path fill="#FF552E" d="M1004.8,50.6c0,4.1-1,7.6-3.1,10.5c-2.1,2.9-5,5.1-8.8,6.7c-3.8,1.5-8.1,2.3-13,2.3
		c-12.9,0-21.7-3.6-26.4-10.8l11.3-8c1.8,2.5,4,4.2,6.4,5c2.4,0.8,5,1.3,7.7,1.3c7.2,0,10.8-2.1,10.8-6.3c0-1.8-1-3.3-3.1-4.3
		c-2-1-5.2-2-9.6-3.1c-8.2-1.8-14-4.4-17.3-7.7c-3.3-3.3-5-7.6-5-12.8c0-5.5,2.1-10,6.3-13.5c4.2-3.5,10.3-5.3,18.5-5.3
		c5.5,0,10.4,0.9,14.6,2.7c4.2,1.8,7.5,4.4,9.7,8l-11.4,8.1c-2.7-4.2-7.1-6.2-13.3-6.2c-3.1,0-5.5,0.5-7.1,1.6
		c-1.6,1.1-2.4,2.5-2.4,4.2c0,1.6,0.7,2.9,2.2,3.9c1.5,1,4.3,2,8.6,3c7,1.7,12,3.4,15.1,5.2c3,1.7,5.3,3.8,6.8,6.4
		C1004,43.8,1004.8,46.9,1004.8,50.6z"/>
</g>
</svg>
