<?xml version="1.0" encoding="utf-8"?>
<!-- Generator: Adobe Illustrator 17.0.2, SVG Export Plug-In . SVG Version: 6.00 Build 0)  -->
<!DOCTYPE svg PUBLIC "-//W3C//DTD SVG 1.1//EN" "http://www.w3.org/Graphics/SVG/1.1/DTD/svg11.dtd">
<svg version="1.1" id="Layer_1" xmlns="http://www.w3.org/2000/svg" xmlns:xlink="http://www.w3.org/1999/xlink" x="0px" y="0px"
	 width="820px" height="120px" viewBox="0 0 820 120" enable-background="new 0 0 820 120" xml:space="preserve">
<g>
	<g>
		<path fill="#55D55D" d="M74.567,27.409c-3.841-3.253-7.686-5.766-11.531-7.542c-3.845-1.774-8.129-2.661-12.86-2.661
			s-8.971,1.136-12.715,3.403c-3.749,2.267-6.926,5.422-9.539,9.462c-2.613,4.043-4.606,8.846-5.987,14.414
			c-1.381,5.571-2.069,11.705-2.069,18.407c1.381-2.069,2.979-4.064,4.803-5.987s3.942-3.598,6.358-5.027
			c2.416-1.427,5.126-2.587,8.134-3.475c3.003-0.886,6.382-1.331,10.126-1.331c4.827,0,9.414,0.739,13.75,2.219
			c4.336,1.478,8.134,3.622,11.387,6.432c3.249,2.808,5.838,6.184,7.758,10.126c1.925,3.944,2.883,8.331,2.883,13.158
			c0,5.027-0.958,9.662-2.883,13.899c-1.92,4.238-4.534,7.886-7.835,10.939c-3.302,3.056-7.219,5.448-11.753,7.171
			s-9.414,2.587-14.636,2.587c-5.718,0-10.867-0.936-15.449-2.808c-4.587-1.872-8.504-4.435-11.758-7.688
			c-2.069-2.07-3.918-4.336-5.544-6.8c-1.627-2.464-2.979-5.272-4.067-8.427c-1.083-3.155-1.92-6.776-2.512-10.867
			c-0.592-4.088-0.886-8.798-0.886-14.121c0-7.883,0.963-15.252,2.883-22.103c1.92-6.849,4.731-12.812,8.427-17.889
			c3.696-5.075,8.206-9.067,13.529-11.977c5.323-2.905,11.382-4.36,18.183-4.36c6.213,0,11.729,1.035,16.561,3.104
			c4.827,2.069,9.51,4.979,14.044,8.723L74.567,27.409z M71.241,70.508c-1.232-2.712-2.955-5.051-5.174-7.024
			c-2.219-1.971-4.88-3.523-7.984-4.656s-6.531-1.701-10.275-1.701c-3.845,0-7.368,0.643-10.569,1.923
			c-3.205,1.283-5.944,2.982-8.206,5.102c-2.272,2.12-4.019,4.534-5.251,7.243c-1.232,2.712-1.848,5.544-1.848,8.502
			c0,3.352,0.64,6.456,1.92,9.315s3.08,5.323,5.4,7.392c2.315,2.07,5.073,3.696,8.278,4.878c3.201,1.184,6.728,1.774,10.569,1.774
			c3.845,0,7.296-0.614,10.352-1.848c3.051-1.23,5.665-2.905,7.835-5.025c2.166-2.12,3.845-4.632,5.029-7.542
			c1.179-2.907,1.771-6.035,1.771-9.387C73.089,76.199,72.473,73.22,71.241,70.508z"/>
		<path fill="#55D55D" d="M202.601,80.634c-2.07,6.507-5.005,12.198-8.798,17.076c-3.792,4.88-8.403,8.75-13.822,11.608
			c-5.424,2.856-11.435,4.286-18.038,4.286c-6.704,0-12.739-1.403-18.111-4.214c-5.376-2.808-9.958-6.654-13.75-11.531
			c-3.797-4.88-6.704-10.545-8.726-17.004c-2.021-6.454-3.027-13.329-3.027-20.625c0-7.291,1.035-14.193,3.104-20.697
			c2.069-6.507,5-12.198,8.798-17.076c3.792-4.88,8.398-8.747,13.822-11.608c5.419-2.856,11.483-4.286,18.183-4.286
			c6.603,0,12.59,1.403,17.966,4.214c5.371,2.808,9.953,6.654,13.75,11.531c3.792,4.88,6.699,10.547,8.721,17.004
			c2.021,6.456,3.032,13.331,3.032,20.625S204.671,74.13,202.601,80.634z M191.363,43.893c-1.478-5.174-3.6-9.731-6.358-13.676
			c-2.758-3.942-6.083-7.096-9.977-9.462c-3.898-2.365-8.259-3.549-13.086-3.549c-4.832,0-9.192,1.16-13.086,3.475
			c-3.894,2.317-7.195,5.422-9.905,9.315c-2.71,3.896-4.803,8.427-6.285,13.601c-1.478,5.176-2.214,10.624-2.214,16.339
			c0,5.718,0.736,11.187,2.214,16.409c1.482,5.227,3.6,9.811,6.358,13.75c2.763,3.944,6.112,7.075,10.054,9.39
			c3.942,2.317,8.331,3.475,13.158,3.475c4.832,0,9.192-1.157,13.086-3.475c3.894-2.315,7.195-5.419,9.905-9.315
			c2.71-3.894,4.784-8.427,6.213-13.601c1.425-5.176,2.142-10.622,2.142-16.339C193.582,54.515,192.846,49.069,191.363,43.893z"/>
		<path fill="#55D55D" d="M242.076,111.831V8.336h22.769V91.28h51.603v20.551H242.076z"/>
		<path fill="#55D55D" d="M425.409,111.831l-9.462-23.212H372.18l-9.462,23.212h-23.212L383.86,7.598h20.998l44.355,104.233H425.409
			z M394.064,34.949l-13.75,33.562h27.5L394.064,34.949z"/>
		<g>
			<g>
				<path fill="#55D55D" d="M542.798,111.831l-22.177-33.119h-17.889v33.119h-22.769V8.336h47.315
					c12.321,0,21.903,3.008,28.756,9.019c6.849,6.014,10.275,14.393,10.275,25.135v0.296c0,8.377-2.045,15.204-6.136,20.476
					c-4.091,5.275-9.438,9.144-16.041,11.606l25.282,36.962L542.798,111.831L542.798,111.831z M543.245,43.672
					c0-4.928-1.579-8.625-4.731-11.089c-3.157-2.462-7.542-3.696-13.158-3.696h-22.625v29.719h23.068
					c5.617,0,9.929-1.331,12.937-3.992c3.003-2.661,4.51-6.211,4.51-10.646L543.245,43.672L543.245,43.672z"/>
			</g>
		</g>
		<path fill="#55D55D" d="M676.675,108.799c-7.344,3.203-15.747,4.806-25.209,4.806c-8.081,0-15.449-1.331-22.105-3.992
			c-6.651-2.661-12.369-6.358-17.148-11.089c-4.784-4.731-8.499-10.347-11.161-16.854c-2.661-6.504-3.995-13.601-3.995-21.289
			v-0.296c0-7.392,1.352-14.316,4.067-20.772c2.71-6.456,6.478-12.123,11.31-17.004c4.827-4.878,10.545-8.723,17.153-11.531
			c6.598-2.811,13.846-4.214,21.73-4.214c4.635,0,8.846,0.32,12.643,0.96c3.792,0.643,7.32,1.552,10.569,2.736
			c3.253,1.182,6.31,2.661,9.168,4.435c2.859,1.774,5.617,3.795,8.278,6.062l-14.337,17.297c-1.973-1.675-3.946-3.152-5.915-4.435
			c-1.973-1.28-4.019-2.365-6.136-3.251c-2.122-0.888-4.413-1.576-6.878-2.072c-2.464-0.491-5.174-0.739-8.129-0.739
			c-4.139,0-8.008,0.866-11.608,2.594s-6.752,4.05-9.462,6.967c-2.71,2.914-4.827,6.322-6.358,10.225
			c-1.53,3.901-2.291,8.076-2.291,12.52v0.296c0,4.743,0.76,9.113,2.291,13.115c1.53,3.999,3.696,7.484,6.507,10.446
			c2.811,2.962,6.112,5.26,9.905,6.89c3.792,1.632,8.008,2.445,12.643,2.445c8.475,0,15.617-2.084,21.436-6.254v-14.89h-22.914
			V52.248h44.942v44.944C690.348,101.729,684.015,105.598,676.675,108.799z"/>
		<path fill="#55D55D" d="M732.34,111.831V8.336h77.919v20.255h-55.443v20.996h48.792v20.255h-48.792v21.735H811v20.255
			L732.34,111.831L732.34,111.831z"/>
	</g>
</g>
</svg>
