<?xml version="1.0" encoding="utf-8"?>
<!-- Generator: Adobe Illustrator 17.0.2, SVG Export Plug-In . SVG Version: 6.00 Build 0)  -->
<!DOCTYPE svg PUBLIC "-//W3C//DTD SVG 1.1//EN" "http://www.w3.org/Graphics/SVG/1.1/DTD/svg11.dtd">
<svg version="1.1" id="Layer_1" xmlns="http://www.w3.org/2000/svg" xmlns:xlink="http://www.w3.org/1999/xlink" x="0px" y="0px"
	 width="391px" height="120px" viewBox="212.5 0 391 120" enable-background="new 212.5 0 391 120" xml:space="preserve">
<path fill="#4F35E4" d="M220.583,27.638c-1.185,3.161-2.723,16.428-1.933,27.754s4.172,44.215,15.497,48.166
	c7.513,2.621,22.213-10.522,33.334-35.739c5.643-12.795,14.212-33.267,12.895-44.066c-0.399-3.274-1.85-7.243-6.261-4.082
	c-4.059,2.908-12.802,9.805-13.498,16.725c-1.514,15.046-4.202,23.108-6.749,30.355c-2.172,6.179-6.815,17.186-9.482,16.593
	c-1.792-0.398,0.823-51.557-0.099-61.434c-0.213-2.287-1.317-6.124-8.494-3.719C230.299,20.032,221.768,24.478,220.583,27.638z"/>
<path fill="#4F35E4" d="M295.466,85.68c1.88,0.607,5.12,0.231,10.058-3.522c4.938-3.753,20.741-19.556,12.247-34.964
	c-5.79-10.503-25.285-0.099-30.026,5.268c-2.22,2.512-15.54,18.437-15.408,36.742s33.503,18.466,43.656-4.675
	c4.478-10.206-6.083-0.782-7.77,0.395c-3.989,2.784-11.921,8.165-16.264,0.988c-5.489-9.073,6.092-33.862,11.325-32.528
	c3.358,0.856,1.58,17.844-5.597,26.272C294.392,83.526,293.721,85.117,295.466,85.68z"/>
<path fill="#4F35E4" d="M351.169,68.232c-1.146,0.302-4.115,1.218-2.535-3.128s5.794-19.885-2.239-20.28
	c-8.033-0.395-12.675,10.14-15.968,17.383s-12.05,38.122-2.074,41.088c10.963,3.259,26.997-28.182,29.894-27.655
	s-0.317,15.128,3.095,21.63c3.292,6.274,19.82,7.177,19.161-0.593c-0.658-7.77-3.622-4.148-2.963-12.05
	c0.658-7.901,1.11-30.688-2.577-33.059s-9.275,0.103-14.411,6.293S352.315,67.93,351.169,68.232z"/>
<path fill="#4F35E4" d="M419.897,54.306c0.05-1.103-8.047,1.544-10.799,2.304c-3.632,1.003-17.35,3.721-16.955,0.363
	c0.395-3.358,3.753-11.207,8.297-12.195s33.976,0.145,34.964,0.541c0.988,0.395,2.922,3.062-0.889,10.865
	c-2.074,4.247-6.493,11.56-11.556,18.793c-4.832,6.903-9.371,11.742-7.704,12.516c2.766,1.284,8.064,0.543,11.161-0.593
	c4.438-1.627,8.988-2.173,8.79,1.284c-0.198,3.457-2.944,17.284-20.534,17.383s-25.788-4.148-25.689-9.778
	c0.099-5.63,8.79-15.157,14.321-20.616C408.835,69.714,419.799,56.479,419.897,54.306z"/>
<g>
	
		<ellipse transform="matrix(0.966 0.2586 -0.2586 0.966 23.6252 -117.7543)" fill="#4F35E4" cx="459.438" cy="30.931" rx="7.572" ry="11.786"/>
	<path fill="#4F35E4" d="M447.783,103.532c-3.055-0.582-6.203-9.755-5.794-20.517c0.395-10.404,1.809-26.262,12.813-36.044
		c3.804-3.382,9.462-1.037,11.171,4.57c1.877,6.159,0.572,15.086-0.806,20.807C462.88,81.833,458.713,105.613,447.783,103.532z"/>
</g>
<path fill="#4F35E4" d="M505.398,60.824c-2.041-1.581-2.502-5.07,3.424-7.835c7.259-3.387,16.62,0.225,19.359,6.124
	c4.28,9.218,3.523,37.466-24.49,42.997c-25.076,4.951-37.734-11.984-31.149-32.264c6.585-20.28,30.289-28.314,40.693-26.207
	c10.404,2.107,1.975,4.741,0.132,5.136c-1.844,0.395-13.432-0.527-20.412,12.642c-6.98,13.169-3.821,31.079,6.518,31.211
	c10.339,0.132,14.902-13.579,11.788-22.256C509.414,65.236,508.147,62.953,505.398,60.824z"/>
</svg>
